# 3ds Max Wavefront OBJ Exporter v0.97b - (c)2007 guruware
# File Created: 21.05.2016 12:51:05

mtllib Camera_002.mtl

#
# object Cylinder002
#

v  -5.1560 50.0000 -21.5837
v  -5.1560 120.0000 -21.5837
v  1.8569 120.0000 -22.6945
v  1.8569 50.0000 -22.6945
v  -11.4825 50.0000 -18.3602
v  -11.4825 120.0000 -18.3602
v  -16.5033 50.0000 -13.3395
v  -16.5033 120.0000 -13.3395
v  -19.7268 50.0000 -7.0130
v  -19.7268 120.0000 -7.0130
v  -20.8376 50.0000 0.0000
v  -20.8376 120.0000 0.0000
v  -19.7268 50.0000 7.0130
v  -19.7268 120.0000 7.0130
v  -16.5033 50.0000 13.3395
v  -16.5033 120.0000 13.3395
v  -11.4825 50.0000 18.3602
v  -11.4825 120.0000 18.3602
v  -5.1560 50.0000 21.5837
v  -5.1560 120.0000 21.5837
v  1.8569 50.0000 22.6945
v  1.8569 120.0000 22.6945
v  -6.3249 180.0000 -25.1810
v  1.8569 180.0000 -26.4769
v  1.8569 120.0000 -26.4769
v  -6.3249 120.0000 -25.1810
v  -13.7058 180.0000 -21.4203
v  -13.7058 120.0000 -21.4203
v  -19.5633 180.0000 -15.5627
v  -19.5633 120.0000 -15.5627
v  -23.3241 180.0000 -8.1818
v  -23.3241 120.0000 -8.1818
v  -24.6200 180.0000 0.0001
v  -24.6200 120.0000 -0.0001
v  -23.3241 180.0000 8.1819
v  -23.3241 120.0000 8.1818
v  -19.5633 180.0000 15.5627
v  -19.5633 120.0000 15.5627
v  -13.7058 180.0000 21.4203
v  -13.7058 120.0000 21.4203
v  -6.3249 180.0000 25.1810
v  -6.3249 120.0000 25.1810
v  1.8569 180.0000 26.4769
v  1.8569 120.0000 26.4769
v  -5.1560 380.0000 -21.5837
v  1.8569 380.0000 -22.6945
v  1.8569 180.0000 -22.6945
v  -5.1560 180.0000 -21.5837
v  -11.4826 380.0000 -18.3602
v  -11.4825 180.0000 -18.3602
v  -16.5033 380.0000 -13.3395
v  -16.5033 180.0000 -13.3395
v  -19.7268 380.0000 -7.0130
v  -19.7268 180.0000 -7.0130
v  -20.8376 380.0000 0.0000
v  -20.8376 180.0000 0.0000
v  -19.7268 380.0000 7.0130
v  -19.7268 180.0000 7.0130
v  -16.5033 380.0000 13.3395
v  -16.5033 180.0000 13.3395
v  -11.4825 380.0000 18.3602
v  -11.4825 180.0000 18.3602
v  -5.1560 380.0000 21.5838
v  -5.1560 180.0000 21.5837
v  1.8569 380.0000 22.6945
v  1.8569 180.0000 22.6945
v  -12.1687 390.0000 -43.1676
v  -24.8220 390.0000 -36.7204
v  -34.8635 390.0000 -26.6790
v  -43.5320 390.0000 -0.0004
v  -41.3105 390.0000 -14.0259
v  -41.3104 390.0000 14.0264
v  -34.8635 390.0000 26.6790
v  -12.1690 390.0000 43.1675
v  -24.8220 390.0000 36.7205
v  1.8569 390.0000 45.1096
v  1.8569 390.0000 -45.1095
v  1.8569 380.0000 -45.1096
v  -12.1690 380.0000 -43.1675
v  -24.8224 380.0000 -36.7202
v  -34.8637 380.0000 -26.6786
v  -41.3106 380.0000 -14.0259
v  -43.5320 380.0000 0.0000
v  -41.3107 380.0000 14.0256
v  -34.8633 380.0000 26.6793
v  -24.8220 380.0000 36.7205
v  -12.1690 380.0000 43.1675
v  1.8569 380.0000 45.1096
v  8.8699 50.0000 -21.5837
v  8.8699 120.0000 -21.5837
v  15.1964 50.0000 -18.3602
v  15.1964 120.0000 -18.3602
v  20.2172 50.0000 -13.3395
v  20.2172 120.0000 -13.3395
v  23.4407 50.0000 -7.0130
v  23.4407 120.0000 -7.0130
v  24.5514 50.0000 0.0000
v  24.5514 120.0000 0.0000
v  23.4407 50.0000 7.0130
v  23.4407 120.0000 7.0130
v  20.2171 50.0000 13.3395
v  20.2171 120.0000 13.3395
v  15.1964 50.0000 18.3602
v  15.1964 120.0000 18.3602
v  8.8699 50.0000 21.5837
v  8.8699 120.0000 21.5837
v  10.0388 180.0000 -25.1810
v  10.0388 120.0000 -25.1810
v  17.4197 180.0000 -21.4203
v  17.4197 120.0000 -21.4203
v  23.2772 180.0000 -15.5627
v  23.2772 120.0000 -15.5627
v  27.0380 180.0000 -8.1818
v  27.0380 120.0000 -8.1818
v  28.3338 180.0000 0.0001
v  28.3338 120.0000 -0.0001
v  27.0379 180.0000 8.1819
v  27.0380 120.0000 8.1818
v  23.2772 180.0000 15.5627
v  23.2772 120.0000 15.5627
v  17.4196 180.0000 21.4203
v  17.4196 120.0000 21.4203
v  10.0387 180.0000 25.1810
v  10.0387 120.0000 25.1810
v  8.8699 380.0000 -21.5837
v  8.8699 180.0000 -21.5837
v  15.1964 380.0000 -18.3602
v  15.1964 180.0000 -18.3602
v  20.2172 380.0000 -13.3395
v  20.2172 180.0000 -13.3395
v  23.4407 380.0000 -7.0130
v  23.4407 180.0000 -7.0130
v  24.5514 380.0000 0.0000
v  24.5514 180.0000 0.0000
v  23.4407 380.0000 7.0130
v  23.4407 180.0000 7.0130
v  20.2171 380.0000 13.3395
v  20.2171 180.0000 13.3395
v  15.1964 380.0000 18.3602
v  15.1964 180.0000 18.3602
v  8.8699 380.0000 21.5838
v  8.8699 180.0000 21.5837
v  15.8829 390.0000 43.1675
v  28.5359 390.0000 36.7205
v  38.5774 390.0000 26.6790
v  47.2459 390.0000 -0.0004
v  45.0243 390.0000 14.0264
v  45.0244 390.0000 -14.0259
v  38.5774 390.0000 -26.6790
v  15.8825 390.0000 -43.1676
v  28.5359 390.0000 -36.7204
v  15.8829 380.0000 -43.1675
v  28.5362 380.0000 -36.7202
v  38.5776 380.0000 -26.6786
v  45.0244 380.0000 -14.0259
v  47.2459 380.0000 0.0000
v  45.0245 380.0000 14.0256
v  38.5771 380.0000 26.6793
v  28.5359 380.0000 36.7205
v  15.8829 380.0000 43.1675
# 160 vertices

vn -0.3090 0.0000 -0.9511
vn 0.0000 0.0000 -1.0000
vn -0.5878 0.0000 -0.8090
vn -0.8090 0.0000 -0.5878
vn -0.9511 0.0000 -0.3090
vn -1.0000 0.0000 0.0000
vn -1.0000 -0.0000 0.0000
vn -0.9511 -0.0000 0.3090
vn -0.8090 -0.0000 0.5878
vn -0.5878 -0.0000 0.8090
vn -0.3090 -0.0000 0.9511
vn 0.0000 -0.0000 1.0000
vn -0.0000 0.0000 -1.0000
vn -1.0000 0.0000 -0.0000
vn -0.9511 0.0000 0.3090
vn -0.8090 0.0000 0.5878
vn -0.5878 0.0000 0.8090
vn -0.3090 0.0000 0.9511
vn -0.0000 0.0000 1.0000
vn 0.0000 0.0000 1.0000
vn 0.0000 -1.0000 -0.0000
vn 0.0000 1.0000 -0.0000
vn -0.2997 0.0000 -0.9540
vn 0.0000 -0.0000 -1.0000
vn -0.2997 -0.0000 -0.9540
vn -0.5878 -0.0000 -0.8090
vn -0.8090 -0.0000 -0.5878
vn -0.9511 -0.0000 -0.3090
vn -0.2997 -0.0000 0.9540
vn -0.2997 0.0000 0.9540
vn 0.3090 0.0000 -0.9511
vn 0.5878 0.0000 -0.8090
vn 0.8090 0.0000 -0.5878
vn 0.9511 0.0000 -0.3090
vn 1.0000 0.0000 0.0000
vn 1.0000 -0.0000 0.0000
vn 0.9511 -0.0000 0.3090
vn 0.8090 -0.0000 0.5878
vn 0.5878 -0.0000 0.8090
vn 0.3090 -0.0000 0.9511
vn 1.0000 0.0000 -0.0000
vn 0.9511 0.0000 0.3090
vn 0.8090 0.0000 0.5878
vn 0.5878 0.0000 0.8090
vn 0.3090 0.0000 0.9511
vn 0.2997 0.0000 -0.9540
vn 0.2997 -0.0000 -0.9540
vn 0.5878 -0.0000 -0.8090
vn 0.8090 -0.0000 -0.5878
vn 0.9511 -0.0000 -0.3090
vn 0.2997 -0.0000 0.9540
vn 0.2997 0.0000 0.9540
# 52 vertex normals

vt 0.0500 0.0000 1.0000
vt 0.0500 0.5000 1.0000
vt 0.0000 0.5000 1.0000
vt 0.0000 0.0000 1.0000
vt 0.1000 0.0000 1.0000
vt 0.1000 0.5000 1.0000
vt 0.1500 0.0000 1.0000
vt 0.1500 0.5000 1.0000
vt 0.2000 0.0000 1.0000
vt 0.2000 0.5000 1.0000
vt 0.2500 0.0000 1.0000
vt 0.2500 0.5000 1.0000
vt 0.3000 0.0000 1.0000
vt 0.3000 0.5000 1.0000
vt 0.3500 0.0000 1.0000
vt 0.3500 0.5000 1.0000
vt 0.4000 0.0000 1.0000
vt 0.4000 0.5000 1.0000
vt 0.4500 0.0000 1.0000
vt 0.4500 0.5000 1.0000
vt 0.5000 0.0000 1.0000
vt 0.5000 0.5000 1.0000
vt 0.0500 0.7500 1.0000
vt 0.0000 0.7500 1.0000
vt 0.1000 0.7500 1.0000
vt 0.1500 0.7500 1.0000
vt 0.2000 0.7500 1.0000
vt 0.2500 0.7500 1.0000
vt 0.3000 0.7500 1.0000
vt 0.3500 0.7500 1.0000
vt 0.4000 0.7500 1.0000
vt 0.4500 0.7500 1.0000
vt 0.5000 0.7500 1.0000
vt 0.0500 0.8750 1.0000
vt 0.0000 0.8750 1.0000
vt 0.1000 0.8750 1.0000
vt 0.1500 0.8750 1.0000
vt 0.2000 0.8750 1.0000
vt 0.2500 0.8750 1.0000
vt 0.3000 0.8750 1.0000
vt 0.3500 0.8750 1.0000
vt 0.4000 0.8750 1.0000
vt 0.4500 0.8750 1.0000
vt 0.5000 0.8750 1.0000
vt 0.9755 0.3455 -0.2500
vt 0.9045 0.2061 -0.2500
vt 0.7939 0.0955 -0.2500
vt 0.5000 0.0000 -0.2500
vt 0.6545 0.0245 -0.2500
vt 0.3455 0.0245 -0.2500
vt 0.2061 0.0955 -0.2500
vt 0.0245 0.3455 -0.2500
vt 0.0955 0.2061 -0.2500
vt 0.0000 0.5000 -0.2500
vt 1.0000 0.5000 -0.2500
vt 0.0245 0.3455 0.2500
vt 0.0955 0.2061 0.2500
vt 0.2061 0.0955 0.2500
vt 0.5000 0.0000 0.2500
vt 0.3455 0.0245 0.2500
vt 0.6545 0.0245 0.2500
vt 0.7939 0.0955 0.2500
vt 0.9755 0.3455 0.2500
vt 0.9045 0.2061 0.2500
vt 1.0000 0.5000 0.2500
vt 0.0000 0.5000 0.2500
vt 0.5000 1.0000 1.0000
# 67 texture coords

g Cylinder002
usemtl wire_225143087
s 8
f 1/1/1 2/2/1 3/3/2 4/4/2 
f 5/5/3 6/6/3 2/2/1 1/1/1 
f 7/7/4 8/8/4 6/6/3 5/5/3 
f 9/9/5 10/10/5 8/8/4 7/7/4 
f 11/11/6 12/12/7 10/10/5 9/9/5 
f 13/13/8 14/14/8 12/12/7 11/11/6 
f 15/15/9 16/16/9 14/14/8 13/13/8 
f 17/17/10 18/18/10 16/16/9 15/15/9 
f 19/19/11 20/20/11 18/18/10 17/17/10 
f 21/21/12 22/22/12 20/20/11 19/19/11 
f 23/23/1 24/24/2 25/3/13 26/2/1 
f 27/25/3 23/23/1 26/2/1 28/6/3 
f 29/26/4 27/25/3 28/6/3 30/8/4 
f 31/27/5 29/26/4 30/8/4 32/10/5 
f 33/28/7 31/27/5 32/10/5 34/12/14 
f 35/29/8 33/28/7 34/12/14 36/14/15 
f 37/30/9 35/29/8 36/14/15 38/16/16 
f 39/31/17 37/30/9 38/16/16 40/18/17 
f 41/32/18 39/31/17 40/18/17 42/20/18 
f 43/33/19 41/32/18 42/20/18 44/22/20 
f 45/34/1 46/35/2 47/24/2 48/23/1 
f 49/36/3 45/34/1 48/23/1 50/25/3 
f 51/37/4 49/36/3 50/25/3 52/26/4 
f 53/38/5 51/37/4 52/26/4 54/27/5 
f 55/39/7 53/38/5 54/27/5 56/28/7 
f 57/40/8 55/39/7 56/28/7 58/29/8 
f 59/41/9 57/40/8 58/29/8 60/30/9 
f 61/42/10 59/41/9 60/30/9 62/31/10 
f 63/43/11 61/42/10 62/31/10 64/32/11 
f 65/44/12 63/43/11 64/32/11 66/33/12 
s off
f 3/3/21 2/2/21 26/2/21 25/3/21 
f 2/2/21 6/6/21 28/6/21 26/2/21 
f 6/6/21 8/8/21 30/8/21 28/6/21 
f 8/8/21 10/10/21 32/10/21 30/8/21 
f 10/10/21 12/12/21 34/12/21 32/10/21 
f 12/12/21 14/14/21 36/14/21 34/12/21 
f 14/14/21 16/16/21 38/16/21 36/14/21 
f 16/16/21 18/18/21 40/18/21 38/16/21 
f 18/18/21 20/20/21 42/20/21 40/18/21 
f 20/20/21 22/22/21 44/22/21 42/20/21 
f 66/33/22 64/32/22 41/32/22 43/33/22 
f 64/32/22 62/31/22 39/31/22 41/32/22 
f 62/31/22 60/30/22 37/30/22 39/31/22 
f 60/30/22 58/29/22 35/29/22 37/30/22 
f 58/29/22 56/28/22 33/28/22 35/29/22 
f 56/28/22 54/27/22 31/27/22 33/28/22 
f 54/27/22 52/26/22 29/26/22 31/27/22 
f 52/26/22 50/25/22 27/25/22 29/26/22 
f 50/25/22 48/23/22 23/23/22 27/25/22 
f 48/23/22 47/24/22 24/24/22 23/23/22 
s 1
f 19/45/21 17/46/21 15/47/21 11/48/21 
f 15/47/21 13/49/21 11/48/21 
f 11/48/21 9/50/21 7/51/21 1/52/21 
f 7/51/21 5/53/21 1/52/21 
f 19/45/21 11/48/21 1/52/21 4/54/21 
f 21/55/21 19/45/21 4/54/21 
f 67/56/22 68/57/22 69/58/22 70/59/22 
f 69/58/22 71/60/22 70/59/22 
f 70/59/22 72/61/22 73/62/22 74/63/22 
f 73/62/22 75/64/22 74/63/22 
f 67/56/22 70/59/22 74/63/22 76/65/22 
f 77/66/22 67/56/22 76/65/22 
s 8
f 67/56/23 77/66/2 78/35/24 79/34/25 
f 68/57/3 67/56/23 79/34/25 80/36/26 
f 69/58/4 68/57/3 80/36/26 81/37/27 
f 71/60/5 69/58/4 81/37/27 82/38/28 
f 70/59/14 71/60/5 82/38/28 83/39/6 
f 72/61/8 70/59/14 83/39/6 84/40/15 
f 73/62/9 72/61/8 84/40/15 85/41/9 
f 75/64/17 73/62/9 85/41/9 86/42/10 
f 74/63/29 75/64/17 86/42/10 87/43/30 
f 76/67/19 74/63/29 87/43/30 88/44/20 
s off
f 46/35/21 45/34/21 79/34/21 78/35/21 
f 45/34/21 49/36/21 80/36/21 79/34/21 
f 49/36/21 51/37/21 81/37/21 80/36/21 
f 51/37/21 53/38/21 82/38/21 81/37/21 
f 53/38/21 55/39/21 83/39/21 82/38/21 
f 55/39/21 57/40/21 84/40/21 83/39/21 
f 57/40/21 59/41/21 85/41/21 84/40/21 
f 59/41/21 61/42/21 86/42/21 85/41/21 
f 61/42/21 63/43/21 87/43/21 86/42/21 
f 63/43/21 65/44/21 88/44/21 87/43/21 
s 8
f 89/1/31 4/4/2 3/3/2 90/2/31 
f 91/5/32 89/1/31 90/2/31 92/6/32 
f 93/7/33 91/5/32 92/6/32 94/8/33 
f 95/9/34 93/7/33 94/8/33 96/10/34 
f 97/11/35 95/9/34 96/10/34 98/12/36 
f 99/13/37 97/11/35 98/12/36 100/14/37 
f 101/15/38 99/13/37 100/14/37 102/16/38 
f 103/17/39 101/15/38 102/16/38 104/18/39 
f 105/19/40 103/17/39 104/18/39 106/20/40 
f 21/21/12 105/19/40 106/20/40 22/22/12 
f 107/23/31 108/2/31 25/3/13 24/24/2 
f 109/25/32 110/6/32 108/2/31 107/23/31 
f 111/26/33 112/8/33 110/6/32 109/25/32 
f 113/27/34 114/10/34 112/8/33 111/26/33 
f 115/28/36 116/12/41 114/10/34 113/27/34 
f 117/29/37 118/14/42 116/12/41 115/28/36 
f 119/30/38 120/16/43 118/14/42 117/29/37 
f 121/31/44 122/18/44 120/16/43 119/30/38 
f 123/32/45 124/20/45 122/18/44 121/31/44 
f 43/33/19 44/22/20 124/20/45 123/32/45 
f 125/34/31 126/23/31 47/24/2 46/35/2 
f 127/36/32 128/25/32 126/23/31 125/34/31 
f 129/37/33 130/26/33 128/25/32 127/36/32 
f 131/38/34 132/27/34 130/26/33 129/37/33 
f 133/39/36 134/28/36 132/27/34 131/38/34 
f 135/40/37 136/29/37 134/28/36 133/39/36 
f 137/41/38 138/30/38 136/29/37 135/40/37 
f 139/42/39 140/31/39 138/30/38 137/41/38 
f 141/43/40 142/32/40 140/31/39 139/42/39 
f 65/44/12 66/33/12 142/32/40 141/43/40 
s off
f 3/3/21 25/3/21 108/2/21 90/2/21 
f 90/2/21 108/2/21 110/6/21 92/6/21 
f 92/6/21 110/6/21 112/8/21 94/8/21 
f 94/8/21 112/8/21 114/10/21 96/10/21 
f 96/10/21 114/10/21 116/12/21 98/12/21 
f 98/12/21 116/12/21 118/14/21 100/14/21 
f 100/14/21 118/14/21 120/16/21 102/16/21 
f 102/16/21 120/16/21 122/18/21 104/18/21 
f 104/18/21 122/18/21 124/20/21 106/20/21 
f 106/20/21 124/20/21 44/22/21 22/22/21 
f 66/33/22 43/33/22 123/32/22 142/32/22 
f 142/32/22 123/32/22 121/31/22 140/31/22 
f 140/31/22 121/31/22 119/30/22 138/30/22 
f 138/30/22 119/30/22 117/29/22 136/29/22 
f 136/29/22 117/29/22 115/28/22 134/28/22 
f 134/28/22 115/28/22 113/27/22 132/27/22 
f 132/27/22 113/27/22 111/26/22 130/26/22 
f 130/26/22 111/26/22 109/25/22 128/25/22 
f 128/25/22 109/25/22 107/23/22 126/23/22 
f 126/23/22 107/23/22 24/24/22 47/24/22 
s 1
f 89/52/21 91/53/21 93/51/21 97/48/21 
f 93/51/21 95/50/21 97/48/21 
f 97/48/21 99/49/21 101/47/21 105/45/21 
f 101/47/21 103/46/21 105/45/21 
f 89/52/21 97/48/21 105/45/21 4/54/21 
f 21/55/21 4/54/21 105/45/21 
f 143/63/22 144/64/22 145/62/22 146/59/22 
f 145/62/22 147/61/22 146/59/22 
f 146/59/22 148/60/22 149/58/22 150/56/22 
f 149/58/22 151/57/22 150/56/22 
f 143/63/22 146/59/22 150/56/22 76/65/22 
f 77/66/22 76/65/22 150/56/22 
s 8
f 150/56/46 152/34/47 78/35/24 77/66/2 
f 151/57/32 153/36/48 152/34/47 150/56/46 
f 149/58/33 154/37/49 153/36/48 151/57/32 
f 148/60/34 155/38/50 154/37/49 149/58/33 
f 146/59/41 156/39/35 155/38/50 148/60/34 
f 147/61/37 157/40/42 156/39/35 146/59/41 
f 145/62/38 158/41/38 157/40/42 147/61/37 
f 144/64/44 159/42/39 158/41/38 145/62/38 
f 143/63/51 160/43/52 159/42/39 144/64/44 
f 76/67/19 88/44/20 160/43/52 143/63/51 
s off
f 46/35/21 78/35/21 152/34/21 125/34/21 
f 125/34/21 152/34/21 153/36/21 127/36/21 
f 127/36/21 153/36/21 154/37/21 129/37/21 
f 129/37/21 154/37/21 155/38/21 131/38/21 
f 131/38/21 155/38/21 156/39/21 133/39/21 
f 133/39/21 156/39/21 157/40/21 135/40/21 
f 135/40/21 157/40/21 158/41/21 137/41/21 
f 137/41/21 158/41/21 159/42/21 139/42/21 
f 139/42/21 159/42/21 160/43/21 141/43/21 
f 141/43/21 160/43/21 88/44/21 65/44/21 
# 152 polygons - 12 triangles

