# 3ds Max Wavefront OBJ Exporter v0.97b - (c)2007 guruware
# File Created: 21.05.2016 14:09:25

mtllib Camera_002.mtl

#
# object Cylinder002
#

v  -0.9924 21.1213 -3.6387
v  0.2250 21.1213 -3.8316
v  0.2250 8.9697 -3.8316
v  -0.9924 8.9697 -3.6387
v  -2.0907 21.1213 -3.0791
v  -2.0907 8.9697 -3.0791
v  -2.9623 21.1213 -2.2076
v  -2.9623 8.9697 -2.2076
v  -3.5219 21.1213 -1.1093
v  -3.5219 8.9697 -1.1093
v  -3.7147 21.1213 0.1081
v  -3.7147 8.9697 0.1081
v  -3.5219 21.1213 1.3255
v  -3.5219 8.9697 1.3255
v  -2.9623 21.1213 2.4238
v  -2.9623 8.9697 2.4238
v  -2.0907 21.1213 3.2953
v  -2.0907 8.9697 3.2953
v  -0.9924 21.1213 3.8549
v  -0.9924 8.9697 3.8549
v  0.2250 21.1213 4.0478
v  0.2250 8.9697 4.0478
v  0.2250 21.1213 -4.4882
v  -1.1954 21.1213 -4.2632
v  -1.1954 31.5370 -4.2632
v  0.2250 31.5370 -4.4882
v  -2.4766 31.5370 -3.6104
v  -2.4766 21.1213 -3.6104
v  -3.4935 21.1213 -2.5935
v  -3.4935 31.5370 -2.5935
v  -4.1463 31.5370 -1.3122
v  -4.1463 21.1213 -1.3122
v  -4.3713 21.1213 0.1081
v  -4.3713 31.5370 0.1081
v  -4.1463 21.1213 1.5284
v  -4.1463 31.5370 1.5284
v  -3.4935 21.1213 2.8097
v  -3.4935 31.5370 2.8097
v  -2.4766 21.1213 3.8266
v  -2.4766 31.5370 3.8266
v  -1.1954 21.1213 4.4794
v  -1.1954 31.5370 4.4794
v  0.2250 21.1213 4.7044
v  0.2250 31.5370 4.7044
v  0.2250 31.5370 -3.8316
v  -0.9924 31.5370 -3.6387
v  -0.9924 66.2561 -3.6387
v  0.2250 66.2561 -3.8316
v  -2.0907 66.2561 -3.0791
v  -2.0907 31.5370 -3.0791
v  -2.9623 31.5370 -2.2076
v  -2.9623 66.2561 -2.2076
v  -3.5219 31.5370 -1.1093
v  -3.5219 66.2561 -1.1093
v  -3.7147 31.5370 0.1081
v  -3.7147 66.2561 0.1081
v  -3.5219 66.2561 1.3255
v  -3.5219 31.5370 1.3255
v  -2.9623 31.5370 2.4238
v  -2.9623 66.2561 2.4238
v  -2.0907 31.5370 3.2953
v  -2.0907 66.2561 3.2953
v  -0.9924 31.5370 3.8549
v  -0.9924 66.2561 3.8549
v  0.2250 66.2561 4.0478
v  0.2250 31.5370 4.0478
v  -7.6543 67.9920 0.1080
v  -2.2098 67.9920 -7.3856
v  -4.4064 67.9920 -6.2664
v  -6.1495 67.9920 -4.5232
v  -7.2687 67.9920 -2.3267
v  -2.2099 67.9920 7.6018
v  -7.2687 67.9920 2.5430
v  -6.1495 67.9920 4.7394
v  -4.4064 67.9920 6.4826
v  0.2250 67.9920 7.9389
v  0.2250 67.9920 -7.7227
v  -2.2099 66.2561 -7.3856
v  0.2250 66.2561 -7.7227
v  -4.4064 66.2561 -6.2663
v  -6.1495 66.2561 -4.5232
v  -7.2687 66.2561 -2.3267
v  -7.6543 66.2561 0.1081
v  -7.2687 66.2561 2.5429
v  -6.1495 66.2561 4.7395
v  -4.4064 66.2561 6.4826
v  -2.2099 66.2561 7.6018
v  0.2250 66.2561 7.9389
v  1.4424 8.9697 -3.6387
v  1.4424 21.1213 -3.6387
v  2.5406 21.1213 -3.0791
v  2.5406 8.9697 -3.0791
v  3.4122 21.1213 -2.2076
v  3.4122 8.9697 -2.2076
v  3.9718 8.9697 -1.1093
v  3.9718 21.1213 -1.1093
v  4.1646 21.1213 0.1081
v  4.1646 8.9697 0.1081
v  3.9718 21.1213 1.3255
v  3.9718 8.9697 1.3255
v  3.4122 21.1213 2.4238
v  3.4122 8.9697 2.4238
v  2.5406 21.1213 3.2953
v  2.5406 8.9697 3.2953
v  1.4424 8.9697 3.8549
v  1.4424 21.1213 3.8549
v  1.6453 21.1213 -4.2632
v  1.6453 31.5370 -4.2632
v  2.9266 31.5370 -3.6104
v  2.9266 21.1213 -3.6104
v  3.9434 31.5370 -2.5935
v  3.9434 21.1213 -2.5935
v  4.5963 31.5370 -1.3122
v  4.5963 21.1213 -1.3122
v  4.8212 21.1213 0.1081
v  4.8212 31.5370 0.1081
v  4.5963 21.1213 1.5284
v  4.5963 31.5370 1.5284
v  3.9434 21.1213 2.8097
v  3.9434 31.5370 2.8097
v  2.9266 31.5370 3.8266
v  2.9266 21.1213 3.8266
v  1.6453 31.5370 4.4794
v  1.6453 21.1213 4.4794
v  1.4424 66.2561 -3.6387
v  1.4424 31.5370 -3.6387
v  2.5406 31.5370 -3.0791
v  2.5406 66.2561 -3.0791
v  3.4122 31.5370 -2.2076
v  3.4122 66.2561 -2.2076
v  3.9718 31.5370 -1.1093
v  3.9718 66.2561 -1.1093
v  4.1646 31.5370 0.1081
v  4.1646 66.2561 0.1081
v  3.9718 31.5370 1.3255
v  3.9718 66.2561 1.3255
v  3.4122 31.5370 2.4238
v  3.4122 66.2561 2.4238
v  2.5406 31.5370 3.2953
v  2.5406 66.2561 3.2953
v  1.4424 31.5370 3.8549
v  1.4424 66.2561 3.8549
v  4.8563 67.9920 6.4826
v  6.5995 67.9920 4.7394
v  8.1043 67.9920 0.1080
v  2.6598 67.9920 7.6018
v  7.7186 67.9920 2.5430
v  2.6597 67.9920 -7.3856
v  7.7186 67.9920 -2.3267
v  6.5995 67.9920 -4.5232
v  4.8563 67.9920 -6.2664
v  2.6598 66.2561 -7.3856
v  4.8564 66.2561 -6.2663
v  6.5995 66.2561 -4.5232
v  7.7186 66.2561 -2.3267
v  8.1043 66.2561 0.1081
v  7.7187 66.2561 2.5429
v  6.5994 66.2561 4.7395
v  4.8563 66.2561 6.4826
v  2.6598 66.2561 7.6018
# 160 vertices

vn -0.3090 0.0000 -0.9511
vn 0.0000 0.0000 -1.0000
vn -0.5878 0.0000 -0.8090
vn -0.8090 0.0000 -0.5878
vn -0.9511 0.0000 -0.3090
vn -1.0000 0.0000 -0.0000
vn -0.9511 0.0000 0.3090
vn -0.8090 0.0000 0.5878
vn -0.5878 0.0000 0.8090
vn -0.3090 0.0000 0.9511
vn 0.0000 0.0000 1.0000
vn 0.0000 -1.0000 -0.0000
vn 0.0000 1.0000 -0.0000
vn -0.2997 0.0000 -0.9540
vn -0.2997 0.0000 0.9540
vn 0.3090 0.0000 -0.9511
vn 0.5878 0.0000 -0.8090
vn 0.8090 0.0000 -0.5878
vn 0.9511 0.0000 -0.3090
vn 1.0000 0.0000 -0.0000
vn 0.9511 0.0000 0.3090
vn 0.8090 0.0000 0.5878
vn 0.5878 0.0000 0.8090
vn 0.3090 0.0000 0.9511
vn 0.2997 0.0000 -0.9540
vn 0.2997 0.0000 0.9540
# 26 vertex normals

vt 0.0500 0.5000 1.0000
vt 0.0000 0.5000 1.0000
vt 0.0000 0.0000 1.0000
vt 0.0500 0.0000 1.0000
vt 0.1000 0.5000 1.0000
vt 0.1000 0.0000 1.0000
vt 0.1500 0.5000 1.0000
vt 0.1500 0.0000 1.0000
vt 0.2000 0.5000 1.0000
vt 0.2000 0.0000 1.0000
vt 0.2500 0.5000 1.0000
vt 0.2500 0.0000 1.0000
vt 0.3000 0.5000 1.0000
vt 0.3000 0.0000 1.0000
vt 0.3500 0.5000 1.0000
vt 0.3500 0.0000 1.0000
vt 0.4000 0.5000 1.0000
vt 0.4000 0.0000 1.0000
vt 0.4500 0.5000 1.0000
vt 0.4500 0.0000 1.0000
vt 0.5000 0.5000 1.0000
vt 0.5000 0.0000 1.0000
vt 0.0500 0.7500 1.0000
vt 0.0000 0.7500 1.0000
vt 0.1000 0.7500 1.0000
vt 0.1500 0.7500 1.0000
vt 0.2000 0.7500 1.0000
vt 0.2500 0.7500 1.0000
vt 0.3000 0.7500 1.0000
vt 0.3500 0.7500 1.0000
vt 0.4000 0.7500 1.0000
vt 0.4500 0.7500 1.0000
vt 0.5000 0.7500 1.0000
vt 0.0500 0.8750 1.0000
vt 0.0000 0.8750 1.0000
vt 0.1000 0.8750 1.0000
vt 0.1500 0.8750 1.0000
vt 0.2000 0.8750 1.0000
vt 0.2500 0.8750 1.0000
vt 0.3000 0.8750 1.0000
vt 0.3500 0.8750 1.0000
vt 0.4000 0.8750 1.0000
vt 0.4500 0.8750 1.0000
vt 0.5000 0.8750 1.0000
vt 0.9755 0.3455 -0.2500
vt 0.9045 0.2061 -0.2500
vt 0.7939 0.0955 -0.2500
vt 0.5000 0.0000 -0.2500
vt 0.6545 0.0245 -0.2500
vt 0.3455 0.0245 -0.2500
vt 0.2061 0.0955 -0.2500
vt 0.0245 0.3455 -0.2500
vt 0.0955 0.2061 -0.2500
vt 0.0000 0.5000 -0.2500
vt 1.0000 0.5000 -0.2500
vt 0.5000 0.0000 0.2500
vt 0.0245 0.3455 0.2500
vt 0.0955 0.2061 0.2500
vt 0.2061 0.0955 0.2500
vt 0.3455 0.0245 0.2500
vt 0.9755 0.3455 0.2500
vt 0.6545 0.0245 0.2500
vt 0.7939 0.0955 0.2500
vt 0.9045 0.2061 0.2500
vt 1.0000 0.5000 0.2500
vt 0.0000 0.5000 0.2500
vt 0.5000 1.0000 1.0000
# 67 texture coords

g Cylinder002
usemtl wire_225143087
s 8
f 1/1/1 2/2/2 3/3/2 4/4/1 
f 5/5/3 1/1/1 4/4/1 6/6/3 
f 7/7/4 5/5/3 6/6/3 8/8/4 
f 9/9/5 7/7/4 8/8/4 10/10/5 
f 11/11/6 9/9/5 10/10/5 12/12/6 
f 13/13/7 11/11/6 12/12/6 14/14/7 
f 15/15/8 13/13/7 14/14/7 16/16/8 
f 17/17/9 15/15/8 16/16/8 18/18/9 
f 19/19/10 17/17/9 18/18/9 20/20/10 
f 21/21/11 19/19/10 20/20/10 22/22/11 
f 23/2/2 24/1/1 25/23/1 26/24/2 
f 27/25/3 25/23/1 24/1/1 28/5/3 
f 28/5/3 29/7/4 30/26/4 27/25/3 
f 31/27/5 30/26/4 29/7/4 32/9/5 
f 31/27/5 32/9/5 33/11/6 34/28/6 
f 34/28/6 33/11/6 35/13/7 36/29/7 
f 35/13/7 37/15/8 38/30/8 36/29/7 
f 37/15/8 39/17/9 40/31/9 38/30/8 
f 39/17/9 41/19/10 42/32/10 40/31/9 
f 41/19/10 43/21/11 44/33/11 42/32/10 
f 45/24/2 46/23/1 47/34/1 48/35/2 
f 49/36/3 47/34/1 46/23/1 50/25/3 
f 50/25/3 51/26/4 52/37/4 49/36/3 
f 51/26/4 53/27/5 54/38/5 52/37/4 
f 53/27/5 55/28/6 56/39/6 54/38/5 
f 57/40/7 56/39/6 55/28/6 58/29/7 
f 57/40/7 58/29/7 59/30/8 60/41/8 
f 60/41/8 59/30/8 61/31/9 62/42/9 
f 62/42/9 61/31/9 63/32/10 64/43/10 
f 65/44/11 64/43/10 63/32/10 66/33/11 
s off
f 23/2/12 2/2/12 1/1/12 24/1/12 
f 24/1/12 1/1/12 5/5/12 28/5/12 
f 28/5/12 5/5/12 7/7/12 29/7/12 
f 32/9/12 29/7/12 7/7/12 9/9/12 
f 33/11/12 32/9/12 9/9/12 11/11/12 
f 33/11/12 11/11/12 13/13/12 35/13/12 
f 37/15/12 35/13/12 13/13/12 15/15/12 
f 15/15/12 17/17/12 39/17/12 37/15/12 
f 17/17/12 19/19/12 41/19/12 39/17/12 
f 21/21/12 43/21/12 41/19/12 19/19/12 
f 63/32/13 42/32/13 44/33/13 66/33/13 
f 61/31/13 40/31/13 42/32/13 63/32/13 
f 59/30/13 38/30/13 40/31/13 61/31/13 
f 58/29/13 36/29/13 38/30/13 59/30/13 
f 55/28/13 34/28/13 36/29/13 58/29/13 
f 53/27/13 31/27/13 34/28/13 55/28/13 
f 51/26/13 30/26/13 31/27/13 53/27/13 
f 50/25/13 27/25/13 30/26/13 51/26/13 
f 27/25/13 50/25/13 46/23/13 25/23/13 
f 45/24/13 26/24/13 25/23/13 46/23/13 
s 1
f 20/45/12 18/46/12 16/47/12 12/48/12 
f 16/47/12 14/49/12 12/48/12 
f 12/48/12 10/50/12 8/51/12 4/52/12 
f 8/51/12 6/53/12 4/52/12 
f 12/48/12 4/52/12 3/54/12 20/45/12 
f 22/55/12 20/45/12 3/54/12 
f 67/56/13 68/57/13 69/58/13 70/59/13 
f 70/59/13 71/60/13 67/56/13 
f 72/61/13 67/56/13 73/62/13 74/63/13 
f 74/63/13 75/64/13 72/61/13 
f 67/56/13 72/61/13 76/65/13 68/57/13 
f 77/66/13 68/57/13 76/65/13 
s 8
f 78/34/14 68/57/14 77/66/2 79/35/2 
f 68/57/14 78/34/14 80/36/3 69/58/3 
f 70/59/4 69/58/3 80/36/3 81/37/4 
f 71/60/5 70/59/4 81/37/4 82/38/5 
f 71/60/5 82/38/5 83/39/6 67/56/6 
f 73/62/7 67/56/6 83/39/6 84/40/7 
f 84/40/7 85/41/8 74/63/8 73/62/7 
f 86/42/9 75/64/9 74/63/8 85/41/8 
f 72/61/15 75/64/9 86/42/9 87/43/15 
f 72/61/15 87/43/15 88/44/11 76/67/11 
s off
f 47/34/12 78/34/12 79/35/12 48/35/12 
f 47/34/12 49/36/12 80/36/12 78/34/12 
f 52/37/12 81/37/12 80/36/12 49/36/12 
f 54/38/12 82/38/12 81/37/12 52/37/12 
f 83/39/12 82/38/12 54/38/12 56/39/12 
f 83/39/12 56/39/12 57/40/12 84/40/12 
f 85/41/12 84/40/12 57/40/12 60/41/12 
f 62/42/12 86/42/12 85/41/12 60/41/12 
f 64/43/12 87/43/12 86/42/12 62/42/12 
f 65/44/12 88/44/12 87/43/12 64/43/12 
s 8
f 89/4/16 3/3/2 2/2/2 90/1/16 
f 90/1/16 91/5/17 92/6/17 89/4/16 
f 91/5/17 93/7/18 94/8/18 92/6/17 
f 95/10/19 94/8/18 93/7/18 96/9/19 
f 96/9/19 97/11/20 98/12/20 95/10/19 
f 97/11/20 99/13/21 100/14/21 98/12/20 
f 99/13/21 101/15/22 102/16/22 100/14/21 
f 102/16/22 101/15/22 103/17/23 104/18/23 
f 105/20/24 104/18/23 103/17/23 106/19/24 
f 22/22/11 105/20/24 106/19/24 21/21/11 
f 107/1/16 23/2/2 26/24/2 108/23/16 
f 108/23/16 109/25/17 110/5/17 107/1/16 
f 111/26/18 112/7/18 110/5/17 109/25/17 
f 113/27/19 114/9/19 112/7/18 111/26/18 
f 115/11/20 114/9/19 113/27/19 116/28/20 
f 117/13/21 115/11/20 116/28/20 118/29/21 
f 119/15/22 117/13/21 118/29/21 120/30/22 
f 121/31/23 122/17/23 119/15/22 120/30/22 
f 122/17/23 121/31/23 123/32/24 124/19/24 
f 44/33/11 43/21/11 124/19/24 123/32/24 
f 125/34/16 126/23/16 45/24/2 48/35/2 
f 127/25/17 126/23/16 125/34/16 128/36/17 
f 129/26/18 127/25/17 128/36/17 130/37/18 
f 131/27/19 129/26/18 130/37/18 132/38/19 
f 133/28/20 131/27/19 132/38/19 134/39/20 
f 135/29/21 133/28/20 134/39/20 136/40/21 
f 137/30/22 135/29/21 136/40/21 138/41/22 
f 139/31/23 137/30/22 138/41/22 140/42/23 
f 141/32/24 139/31/23 140/42/23 142/43/24 
f 142/43/24 65/44/11 66/33/11 141/32/24 
s off
f 2/2/12 23/2/12 107/1/12 90/1/12 
f 107/1/12 110/5/12 91/5/12 90/1/12 
f 93/7/12 91/5/12 110/5/12 112/7/12 
f 112/7/12 114/9/12 96/9/12 93/7/12 
f 115/11/12 97/11/12 96/9/12 114/9/12 
f 117/13/12 99/13/12 97/11/12 115/11/12 
f 99/13/12 117/13/12 119/15/12 101/15/12 
f 103/17/12 101/15/12 119/15/12 122/17/12 
f 103/17/12 122/17/12 124/19/12 106/19/12 
f 106/19/12 124/19/12 43/21/12 21/21/12 
f 141/32/13 66/33/13 44/33/13 123/32/13 
f 123/32/13 121/31/13 139/31/13 141/32/13 
f 137/30/13 139/31/13 121/31/13 120/30/13 
f 137/30/13 120/30/13 118/29/13 135/29/13 
f 135/29/13 118/29/13 116/28/13 133/28/13 
f 133/28/13 116/28/13 113/27/13 131/27/13 
f 131/27/13 113/27/13 111/26/13 129/26/13 
f 111/26/13 109/25/13 127/25/13 129/26/13 
f 127/25/13 109/25/13 108/23/13 126/23/13 
f 126/23/13 108/23/13 26/24/13 45/24/13 
s 1
f 92/53/12 94/51/12 98/48/12 89/52/12 
f 94/51/12 95/50/12 98/48/12 
f 100/49/12 102/47/12 105/45/12 98/48/12 
f 102/47/12 104/46/12 105/45/12 
f 3/54/12 89/52/12 98/48/12 105/45/12 
f 22/55/12 3/54/12 105/45/12 
f 143/64/13 144/63/13 145/56/13 146/61/13 
f 144/63/13 147/62/13 145/56/13 
f 148/57/13 145/56/13 149/60/13 150/59/13 
f 150/59/13 151/58/13 148/57/13 
f 76/65/13 146/61/13 145/56/13 148/57/13 
f 77/66/13 76/65/13 148/57/13 
s 8
f 148/57/25 152/34/25 79/35/2 77/66/2 
f 151/58/17 153/36/17 152/34/25 148/57/25 
f 150/59/18 154/37/18 153/36/17 151/58/17 
f 155/38/19 154/37/18 150/59/18 149/60/19 
f 149/60/19 145/56/20 156/39/20 155/38/19 
f 147/62/21 157/40/21 156/39/20 145/56/20 
f 158/41/22 157/40/21 147/62/21 144/63/22 
f 143/64/23 159/42/23 158/41/22 144/63/22 
f 159/42/23 143/64/23 146/61/26 160/43/26 
f 146/61/26 76/67/11 88/44/11 160/43/26 
s off
f 125/34/12 48/35/12 79/35/12 152/34/12 
f 128/36/12 125/34/12 152/34/12 153/36/12 
f 128/36/12 153/36/12 154/37/12 130/37/12 
f 154/37/12 155/38/12 132/38/12 130/37/12 
f 132/38/12 155/38/12 156/39/12 134/39/12 
f 156/39/12 157/40/12 136/40/12 134/39/12 
f 158/41/12 138/41/12 136/40/12 157/40/12 
f 158/41/12 159/42/12 140/42/12 138/41/12 
f 140/42/12 159/42/12 160/43/12 142/43/12 
f 88/44/12 65/44/12 142/43/12 160/43/12 
# 152 polygons - 12 triangles

