# 3ds Max Wavefront OBJ Exporter v0.97b - (c)2007 guruware
# File Created: 21.05.2016 14:09:57

mtllib Camera_005.mtl

#
# object Box005
#

v  -5.4003 102.3185 17.6578
v  -6.9461 110.0474 20.7494
v  -6.9149 110.0176 8.7879
v  -5.4315 104.0843 8.7879
v  -1.8333 103.5790 8.7879
v  -1.8333 101.8431 17.4676
v  -4.7844 101.8431 17.4676
v  -4.7844 103.5790 8.7879
v  -1.8333 102.1298 16.8064
v  -1.8333 110.2175 19.9619
v  -6.1271 110.2175 19.9619
v  -4.5126 102.1298 16.8064
v  -1.8333 110.5228 8.7879
v  -6.5204 110.5228 8.7879
v  -6.5204 110.5228 20.9395
v  -1.8333 110.5228 20.9395
v  -4.7844 101.8420 20.3811
v  -6.5204 110.5218 25.5781
v  -6.9461 110.0464 25.3880
v  -5.4003 102.3174 20.5713
v  -1.8333 102.1467 17.5891
v  -4.5126 102.1467 17.5891
v  -1.8333 110.5218 25.5781
v  -6.1271 110.2182 25.4567
v  -1.8333 110.2182 25.4567
v  -4.5126 102.1456 20.5026
v  -1.8333 110.2192 20.8181
v  -6.1271 110.2192 20.8181
v  3.2482 110.0176 8.7879
v  3.2794 110.0474 20.7494
v  1.7337 102.3185 17.6578
v  1.7649 104.0843 8.7879
v  1.1178 101.8431 17.4676
v  1.1178 103.5790 8.7879
v  2.4604 110.2175 19.9619
v  0.8459 102.1298 16.8064
v  2.8537 110.5228 8.7879
v  2.8537 110.5228 20.9395
v  1.1178 101.8420 20.3811
v  1.7337 102.3174 20.5713
v  3.2794 110.0464 25.3880
v  2.8537 110.5218 25.5781
v  0.8459 102.1467 17.5891
v  2.4604 110.2182 25.4567
v  0.8459 102.1456 20.5026
v  2.4604 110.2192 20.8181
# 46 vertices

vn -0.9825 -0.1833 -0.0330
vn -0.9782 -0.2068 -0.0208
vn -0.9701 -0.2425 -0.0019
vn -0.9754 -0.2202 -0.0137
vn 0.0000 -0.9806 -0.1961
vn 0.0000 -0.3635 0.9316
vn 0.0000 1.0000 -0.0000
vn 0.0000 0.0000 -1.0000
vn -0.6203 -0.7694 -0.1524
vn -0.7669 0.6418 -0.0018
vn -0.1514 -0.5299 0.8344
vn 0.1537 -0.4994 0.8526
vn 0.1734 -0.4957 0.8510
vn -0.1445 -0.5298 0.8358
vn 0.0000 -0.3714 0.9285
vn 0.0000 -0.5182 0.8552
vn 0.0000 0.9998 -0.0216
vn 0.0000 -1.0000 0.0020
vn 0.9804 0.1968 -0.0022
vn -0.9806 -0.1961 -0.0001
vn -0.6111 -0.7915 -0.0003
vn 0.7450 -0.6670 -0.0002
vn 0.9806 0.1961 0.0001
vn 0.0000 -1.0000 -0.0002
vn 0.0000 1.0000 0.0002
vn -0.7450 0.6671 0.0002
vn 0.9701 -0.2425 -0.0019
vn 0.9782 -0.2068 -0.0208
vn 0.9825 -0.1833 -0.0330
vn 0.9754 -0.2202 -0.0137
vn 0.6203 -0.7694 -0.1524
vn 0.7669 0.6418 -0.0018
vn 0.1514 -0.5299 0.8344
vn 0.1445 -0.5298 0.8358
vn -0.1734 -0.4957 0.8510
vn -0.1537 -0.4994 0.8526
vn -0.9804 0.1968 -0.0022
vn 0.9806 -0.1961 -0.0001
vn 0.6111 -0.7915 -0.0003
vn -0.7450 -0.6670 -0.0002
vn -0.9806 0.1961 0.0001
vn 0.7450 0.6671 0.0002
# 42 vertex normals

vt 1.0000 0.0548 0.0000
vt 1.0000 0.9452 0.0000
vt 0.0000 0.9272 0.0000
vt 0.0000 0.0728 0.0000
vt 0.0000 0.5000 0.0000
vt 1.0000 0.5000 0.0000
vt 1.0000 0.9250 0.0000
vt 0.0000 0.9250 0.0000
vt 1.0000 0.9500 0.0000
vt 0.0000 0.9500 0.0000
vt -0.0115 1.0340 0.0000
vt 1.0108 1.0380 0.0000
vt 1.0001 1.0101 0.0000
vt 0.0156 1.0148 0.0000
vt 0.9452 1.0000 0.0000
vt 0.0548 1.0000 0.0000
vt 0.0728 1.0000 0.0000
vt 0.9272 1.0000 0.0000
# 18 texture coords

g Box005
usemtl wire_061135006
s 4
f 1/1/1 2/2/2 3/3/3 4/4/4 
s 8
f 5/5/5 6/6/5 7/7/5 8/8/5 
s 16
f 9/5/6 10/6/6 11/9/6 12/8/6 
s 32
f 13/6/7 14/9/7 15/10/7 16/5/7 
s 64
f 13/5/8 5/6/8 8/7/8 14/10/8 
s off
f 4/11/9 8/8/9 7/7/9 1/12/9 
f 15/10/10 14/9/10 3/13/10 2/14/10 
s 16
f 17/8/11 18/9/12 19/15/13 20/16/14 
s 64
f 3/17/8 14/10/8 8/7/8 4/18/8 
s off
f 21/5/15 22/8/15 7/7/15 6/6/15 
f 23/5/15 18/10/15 24/9/15 25/6/15 
f 26/8/16 24/9/16 18/9/16 17/8/16 
f 12/8/17 22/8/17 21/5/17 9/5/17 
f 11/9/18 10/6/18 27/6/18 28/9/18 
f 28/9/19 22/8/19 12/8/19 11/9/19 
f 20/16/20 19/15/20 2/2/20 1/1/20 
f 17/8/21 20/16/21 1/12/21 7/7/21 
f 17/8/22 7/7/22 22/8/22 26/8/22 
f 26/8/23 22/8/23 28/9/23 24/9/23 
f 28/9/24 27/6/24 25/6/24 24/9/24 
f 18/10/25 23/5/25 16/5/25 15/10/25 
f 15/10/26 2/14/26 19/15/26 18/9/26 
s 4
f 29/3/27 30/2/28 31/1/29 32/4/30 
s 8
f 33/7/5 6/6/5 5/5/5 34/8/5 
s 16
f 35/9/6 10/6/6 9/5/6 36/8/6 
s 32
f 37/9/7 13/6/7 16/5/7 38/10/7 
s 64
f 37/10/8 34/7/8 5/6/8 13/5/8 
s off
f 34/8/31 32/11/31 31/12/31 33/7/31 
f 38/10/32 30/14/32 29/13/32 37/9/32 
s 16
f 39/8/33 40/16/34 41/15/35 42/9/36 
s 64
f 32/18/8 34/7/8 37/10/8 29/17/8 
s off
f 43/8/15 21/5/15 6/6/15 33/7/15 
f 44/9/15 42/10/15 23/5/15 25/6/15 
f 42/9/16 44/9/16 45/8/16 39/8/16 
f 43/8/17 36/8/17 9/5/17 21/5/17 
f 35/9/18 46/9/18 27/6/18 10/6/18 
f 36/8/37 43/8/37 46/9/37 35/9/37 
f 40/16/38 31/1/38 30/2/38 41/15/38 
f 33/7/39 31/12/39 40/16/39 39/8/39 
f 39/8/40 45/8/40 43/8/40 33/7/40 
f 43/8/41 45/8/41 44/9/41 46/9/41 
f 27/6/24 46/9/24 44/9/24 25/6/24 
f 38/10/25 16/5/25 23/5/25 42/10/25 
f 41/15/42 30/14/42 38/10/42 42/9/42 
# 44 polygons

#
# object Box006
#

v  -0.8085 103.5972 8.7879
v  -0.8085 103.5972 1.8441
v  -0.8085 99.2392 1.8441
v  -0.8085 99.2392 3.5800
v  -0.8085 107.9189 8.7879
v  -0.8085 104.4470 1.8441
v  -0.0364 99.2392 1.8441
v  -0.0364 99.2392 3.5800
v  -0.0364 103.5972 8.7879
v  -0.0364 107.9189 8.7879
v  -0.0364 104.4470 1.8441
v  -0.0364 103.5972 1.8441
# 12 vertices

vn -1.0000 0.0000 -0.0000
vn 0.0000 -1.0000 -0.0000
vn 0.0000 -0.7669 0.6418
vn 0.0000 0.8944 -0.4472
vn 0.0000 0.0000 -1.0000
vn 0.0000 0.0000 1.0000
vn 1.0000 0.0000 -0.0000
# 7 vertex normals

vt 0.0000 0.5000 0.0000
vt 1.0000 0.5000 0.0000
vt 1.0000 0.0000 0.0000
vt 0.0000 0.0000 0.0000
vt 0.0000 1.0000 0.0000
vt 1.0000 1.0000 0.0000
# 6 texture coords

g Box006
usemtl wire_148177027
s 2
f 47/19/43 48/20/43 49/21/43 50/22/43 
f 47/19/43 51/23/43 52/24/43 48/20/43 
s off
f 50/22/44 49/21/44 53/21/44 54/22/44 
f 54/22/45 55/19/45 47/19/45 50/22/45 
f 56/23/46 57/24/46 52/24/46 51/23/46 
f 52/24/47 57/24/47 58/20/47 48/20/47 
f 55/19/48 56/23/48 51/23/48 47/19/48 
f 48/20/47 58/20/47 53/21/47 49/21/47 
s 1
f 54/22/49 53/21/49 58/20/49 55/24/49 
s 2
f 55/24/49 58/20/49 57/19/49 56/23/49 
# 10 polygons

